<svg width="1369" height="2865" viewBox="0 0 1369 2865" fill="none" xmlns="http://www.w3.org/2000/svg">
<path d="M527.026 867.118C513.737 765.017 618.534 410.652 1144.03 -190H1343.36L1861 757.19L1815 1767.88L1608.92 2645.7L1204.13 2825L686.49 2645.7C473.872 2640.01 39.4356 2541.96 2.63636 2195.32C-43.3627 1762.01 527.026 2177.71 586.518 2039.5C634.112 1928.93 349.572 1812.35 201.352 1767.88C208.099 1573.46 282.679 1205.44 527.026 1288.68C771.373 1371.93 1009.51 969.041 1098.03 757.19L527.026 867.118Z" fill="#01847F" fill-opacity="0.27"/>
<path d="M628.607 937.767C617.775 835.7 703.2 481.453 1131.56 -119H1294.04L1716 827.876L1678.5 1838.23L1510.52 2715.76L1180.55 2895L758.594 2715.76C585.278 2710.07 231.146 2612.06 201.149 2265.53C163.653 1832.36 628.607 2247.92 677.102 2109.76C715.898 1999.23 483.955 1882.69 363.133 1838.23C368.633 1643.88 429.427 1275.98 628.607 1359.19C827.787 1442.41 1021.9 1039.66 1094.06 827.876L628.607 937.767Z" fill="#01847F" fill-opacity="0.37"/>
</svg>
